<?xml version="1.0" encoding="UTF-8"?>
<svg width="25px" height="27px" viewBox="0 0 25 27" version="1.1" xmlns="http://www.w3.org/2000/svg" xmlns:xlink="http://www.w3.org/1999/xlink">
    <!-- Generator: Sketch 62 (91390) - https://sketch.com -->
    <title>writing copy</title>
    <desc>Created with Sketch.</desc>
    <g id="export" stroke="none" stroke-width="1" fill="none" fill-rule="evenodd">
        <g id="uvod" transform="translate(-40.000000, -658.000000)" fill="#2C2D2D" fill-rule="nonzero">
            <g id="Group-21" transform="translate(-0.064478, 648.993268)">
                <g id="writing-copy" transform="translate(40.068915, 9.260192)">
                    <path d="M21.6704645,-2.57571742e-14 L24.991126,2.97740733 L23.754,4.394 L23.7546212,18.0285165 C23.7546212,19.6840876 22.4550278,21.0406918 20.8221135,21.1322822 L20.645927,21.1372108 L10.7094041,21.1356487 L5.88562016,26.0690468 C5.58087987,26.380301 5.15054835,26.5238958 4.72929878,26.4680257 L4.58940336,26.4419711 L4.39291721,26.3786009 C3.92143562,26.1864192 3.59957273,25.7499765 3.54920309,25.250686 L3.54228872,25.113094 L3.54205166,21.1356487 L3.10869426,21.1372108 C1.54931185,21.1372108 0.255053164,19.9841999 0.0334834035,18.4855547 L0.0127240628,18.3111461 L1.91846539e-12,18.0285165 L1.91846539e-12,5.83397891 C1.91846539e-12,4.1785577 1.29966026,2.82181395 2.93251463,2.73021381 L3.10869426,2.72528465 L19.375,2.725 L21.6704645,-2.57571742e-14 Z M18.542,3.714 L3.10869426,3.71634555 C1.99224632,3.71634555 1.07411742,4.58593324 0.996390607,5.68302556 L0.991060902,5.83397891 L0.991060902,18.0285165 C0.991060902,19.1451002 1.86057087,20.0631052 2.95773078,20.140821 L3.10869426,20.1461499 L4.03781917,20.1461499 C4.28108487,20.1461499 4.48340845,20.321444 4.52536597,20.5526081 L4.53334962,20.6416804 L4.53334962,25.113094 C4.53334962,25.2657635 4.62578185,25.4032894 4.76712085,25.4609009 C4.88532901,25.5091195 5.01756336,25.4933139 5.11987004,25.423879 L5.17731108,25.3758657 L10.1473128,20.2951676 L10.5015434,20.1461499 L20.645927,20.1461499 C21.7624561,20.1461499 22.6805109,19.276692 22.7582311,18.1794868 L22.7635603,18.0285165 L22.762,5.53 L18.502,10.41 L19.8622097,10.4102645 C20.138352,10.4102645 20.3622097,10.6341221 20.3622097,10.9102645 C20.3622097,11.1557244 20.1853345,11.3598729 19.9520853,11.4022088 L19.8622097,11.4102645 L17.629,11.41 L16.1891386,13.0606363 L13.445,14.203 L14.0314241,14.2035158 C14.3075665,14.2035158 14.5314241,14.4273734 14.5314241,14.7035158 C14.5314241,14.9489757 14.3545489,15.1531241 14.1212997,15.1954601 L14.0314241,15.2035158 L4.00523525,15.2035158 C3.72909287,15.2035158 3.50523525,14.9796582 3.50523525,14.7035158 C3.50523525,14.4580559 3.68211041,14.2539074 3.91535962,14.2115714 L4.00523525,14.2035158 L11.678,14.203 L12.629,11.41 L4.00523525,11.4102645 C3.72909287,11.4102645 3.50523525,11.1864069 3.50523525,10.9102645 C3.50523525,10.6648046 3.68211041,10.4606561 3.91535962,10.4183202 L4.00523525,10.4102645 L12.969,10.41 L13.01474,10.2797828 L15.256,7.617 L4.00523525,7.61701326 C3.72909287,7.61701326 3.50523525,7.39315563 3.50523525,7.11701326 C3.50523525,6.87155337 3.68211041,6.66740489 3.91535962,6.62506893 L4.00523525,6.61701326 L16.098,6.617 L18.542,3.714 Z M21.771,1.433 L13.901,10.778 L13.047,13.286 L15.589,12.227 L23.588,3.062 L21.771,1.433 Z" id="Combined-Shape"></path>
                </g>
            </g>
        </g>
    </g>
</svg>