<?xml version="1.0" encoding="UTF-8"?>
<svg width="25px" height="23px" viewBox="0 0 25 23" version="1.1" xmlns="http://www.w3.org/2000/svg" xmlns:xlink="http://www.w3.org/1999/xlink">
    <!-- Generator: Sketch 62 (91390) - https://sketch.com -->
    <title>blog_kategorie</title>
    <desc>Created with Sketch.</desc>
    <g id="export" stroke="none" stroke-width="1" fill="none" fill-rule="evenodd">
        <g id="uvod" transform="translate(-40.000000, -615.000000)" fill="#2C2D2D" fill-rule="nonzero">
            <g id="Group-20" transform="translate(-0.064478, 603.993268)">
                <g id="blog_kategorie" transform="translate(40.064478, 11.453559)">
                    <path d="M3.41910879,16.8327875 C4.43449685,16.8327875 5.26033039,17.6586211 5.26033039,18.6740091 L5.26033039,20.252089 C5.26033039,21.2672844 4.43449685,22.0931179 3.41910879,22.0931179 L1.84102893,22.0931179 C0.825833548,22.0931179 3.66551234e-12,21.2672844 3.66551234e-12,20.252089 L3.66551234e-12,18.6740091 C3.66551234e-12,17.6586211 0.825833548,16.8327875 1.84102893,16.8327875 L3.41910879,16.8327875 Z M3.41910879,17.8327875 L1.84102893,17.8327875 C1.4137142,17.8327875 1.05867184,18.1549828 1.00657842,18.5687839 L1,18.6740091 L1,20.252089 C1,20.6793911 1.32218364,21.0344441 1.7358421,21.0865393 L1.84102893,21.0931179 L3.41910879,21.0931179 C3.84657616,21.0931179 4.20165354,20.7709459 4.25375144,20.3572785 L4.26033039,20.252089 L4.26033039,18.6740091 C4.26033039,18.2465291 3.93814676,17.8914624 3.52433675,17.8393663 L3.41910879,17.8327875 Z M24.4476721,18.8679527 C24.7527144,18.8679527 25,19.1343433 25,19.4629527 C25,19.750486 24.8106719,19.9903829 24.5589854,20.0458644 L24.4476721,20.0579527 L8.15875894,20.0579527 C7.85371663,20.0579527 7.60643099,19.7915621 7.60643099,19.4629527 C7.60643099,19.1754195 7.79575906,18.9355225 8.04744559,18.880041 L8.15875894,18.8679527 L24.4476721,18.8679527 Z M3.41910879,8.4164901 C4.43449685,8.4164901 5.26033039,9.24232359 5.26033039,10.257519 L5.26033039,11.8355989 C5.26033039,12.8507943 4.43449685,13.6766278 3.41910879,13.6766278 L1.84102893,13.6766278 C0.825833548,13.6766278 3.66551234e-12,12.8507943 3.66551234e-12,11.8355989 L3.66551234e-12,10.257519 C3.66551234e-12,9.24232359 0.825833548,8.4164901 1.84102893,8.4164901 L3.41910879,8.4164901 Z M3.41910879,9.4164901 L1.84102893,9.4164901 C1.41372679,9.4164901 1.05867377,9.73867371 1.00657865,10.1523322 L1,10.257519 L1,11.8355989 C1,12.262901 1.32218362,12.617954 1.7358421,12.6700492 L1.84102893,12.6766278 L3.41910879,12.6766278 C3.84657618,12.6766278 4.20165354,12.3544558 4.25375144,11.9407884 L4.26033039,11.8355989 L4.26033039,10.257519 C4.26033039,9.83020427 3.93813513,9.47516193 3.52433406,9.42306852 L3.41910879,9.4164901 Z M24.4476721,10.451559 C24.7527144,10.451559 25,10.7179495 25,11.046559 C25,11.3340922 24.8106719,11.5739891 24.5589854,11.6294707 L24.4476721,11.641559 L8.15875894,11.641559 C7.85371663,11.641559 7.60643099,11.3751684 7.60643099,11.046559 C7.60643099,10.7590257 7.79575906,10.5191288 8.04744559,10.4636472 L8.15875894,10.451559 L24.4476721,10.451559 Z M3.41910879,5.32907052e-14 C4.43449685,5.32907052e-14 5.26033039,0.825833548 5.26033039,1.84102893 L5.26033039,3.41910879 C5.26033039,4.43449685 4.43449685,5.26033039 3.41910879,5.26033039 L1.84102893,5.26033039 C0.825833548,5.26033039 3.66551234e-12,4.43449685 3.66551234e-12,3.41910879 L3.66551234e-12,1.84102893 C3.66551234e-12,0.825833548 0.825833548,5.32907052e-14 1.84102893,5.32907052e-14 L3.41910879,5.32907052e-14 Z M3.41910879,1 L1.84102893,1 C1.41372681,1 1.05867378,1.32218364 1.00657865,1.7358421 L1,1.84102893 L1,3.41910879 C1,3.84657616 1.322172,4.20165354 1.73583942,4.25375144 L1.84102893,4.26033039 L3.41910879,4.26033039 C3.84658877,4.26033039 4.20165548,3.93814676 4.25375166,3.52433675 L4.26033039,3.41910879 L4.26033039,1.84102893 C4.26033039,1.4137142 3.93813512,1.05867184 3.52433406,1.00657842 L3.41910879,1 Z M24.4476721,2.03551898 C24.7527144,2.03551898 25,2.30190955 25,2.63051898 C25,2.91805223 24.8106719,3.15794917 24.5589854,3.21343069 L24.4476721,3.22551898 L8.15875894,3.22551898 C7.85371663,3.22551898 7.60643099,2.95912841 7.60643099,2.63051898 C7.60643099,2.34298573 7.79575906,2.10308879 8.04744559,2.04760726 L8.15875894,2.03551898 L24.4476721,2.03551898 Z" id="Combined-Shape"></path>
                </g>
            </g>
        </g>
    </g>
</svg>