<?xml version="1.0" encoding="UTF-8"?>
<svg width="27px" height="24px" viewBox="0 0 27 24" version="1.1" xmlns="http://www.w3.org/2000/svg" xmlns:xlink="http://www.w3.org/1999/xlink">
    <!-- Generator: Sketch 60 (88103) - https://sketch.com -->
    <title>domu</title>
    <desc>Created with Sketch.</desc>
    <g id="export" stroke="none" stroke-width="1" fill="none" fill-rule="evenodd">
        <g id="objednavka_expedice" transform="translate(-39.000000, -120.000000)" fill="#2C2D2D" fill-rule="nonzero">
            <g id="Group-14" transform="translate(0.000000, 109.875618)">
                <g id="domu" transform="translate(39.564444, 11.005265)">
                    <path d="M22.5396345,10.2475506 C22.7850944,10.2475506 22.9892428,10.4244258 23.0315788,10.657675 L23.0396345,10.7475506 L23.0396345,22.4894693 C23.0396345,22.7349292 22.8627593,22.9390777 22.6295101,22.9814136 L22.5396345,22.9894693 L15.7421103,22.9894693 C15.4966505,22.9894693 15.292502,22.8125941 15.250166,22.5793449 L15.2421103,22.4894693 L15.2421103,15.2149078 C15.2421103,14.3102233 14.1923088,13.4490961 13.0000339,13.4490961 C11.8690687,13.4490961 10.8714675,14.2342678 10.7831132,15.0919634 L10.7767603,15.2149078 L10.7767603,22.4894693 C10.7767603,22.7349292 10.5998851,22.9390777 10.3666359,22.9814136 L10.2767603,22.9894693 L3.48502769,22.9894693 C3.2395678,22.9894693 3.03541932,22.8125941 2.99308336,22.5793449 L2.98502769,22.4894693 L2.98502769,10.7475506 C2.98502769,10.4714082 3.20888531,10.2475506 3.48502769,10.2475506 C3.73048758,10.2475506 3.93463606,10.4244258 3.97697202,10.657675 L3.98502769,10.7475506 L3.98403394,21.989 L9.77603394,21.989 L9.77676029,15.2149078 C9.77676029,13.7666406 11.1930147,12.5396786 12.8186119,12.4538857 L13.0000339,12.4490961 C14.6448018,12.4490961 16.1321522,13.6209498 16.2362936,15.054584 L16.2421103,15.2149078 L16.2420339,21.989 L22.0390339,21.989 L22.0396345,10.7475506 C22.0396345,10.5020907 22.2165096,10.2979422 22.4497588,10.2556063 L22.5396345,10.2475506 Z" id="Path-5"></path>
                    <path d="M12.6965156,0.09659616 C12.8471914,-0.0137416693 13.0442408,-0.0295584978 13.2082164,0.0491702439 L13.2870802,0.0964135259 L25.7951915,9.24405166 C26.0180861,9.40706265 26.0666314,9.71990099 25.9036204,9.94279565 C25.7587218,10.1409242 25.495441,10.2012953 25.282177,10.0977772 L25.2048764,10.0512246 L12.9920339,1.119 L0.795441018,10.051042 C0.597402095,10.1960632 0.328193183,10.1739727 0.156229272,10.0107982 L0.0966301001,9.94304521 C-0.048391077,9.74500629 -0.0263006519,9.47579738 0.136873915,9.30383347 L0.204626862,9.2442343 L12.6965156,0.09659616 Z" id="Path-4"></path>
                </g>
            </g>
        </g>
    </g>
</svg>