<?xml version="1.0" encoding="UTF-8"?>
<!DOCTYPE svg PUBLIC "-//W3C//DTD SVG 1.1//EN" "http://www.w3.org/Graphics/SVG/1.1/DTD/svg11.dtd">
<svg xmlns="http://www.w3.org/2000/svg" version="1.1" width="157px" height="34px" style="shape-rendering:geometricPrecision; text-rendering:geometricPrecision; image-rendering:optimizeQuality; fill-rule:evenodd; clip-rule:evenodd" xmlns:xlink="http://www.w3.org/1999/xlink">
<g><path style="opacity:0.867" fill="#01233c" d="M 33.5,8.5 C 36.0074,8.80464 38.6741,8.9713 41.5,9C 42.2529,10.487 43.0862,10.6537 44,9.5C 44.9246,10.0465 45.7579,10.7132 46.5,11.5C 45.6744,12.451 45.5078,13.451 46,14.5C 50.1149,16.9476 53.9482,19.7809 57.5,23C 38.8333,23.6667 20.1667,23.6667 1.5,23C 4.1662,20.6647 7.1662,18.8314 10.5,17.5C 11.6928,14.0622 14.0261,11.7288 17.5,10.5C 18.1667,11.1667 18.8333,11.8333 19.5,12.5C 21.7061,11.3035 23.8728,11.6368 26,13.5C 28.8311,12.1793 31.3311,10.5127 33.5,8.5 Z"/></g>
<g><path style="opacity:0.63" fill="#000000" d="M 69.5,12.5 C 70.7868,13.8714 71.4535,15.7047 71.5,18C 71.1667,19.8333 70.8333,21.6667 70.5,23.5C 69.5108,19.8927 69.1774,16.226 69.5,12.5 Z"/></g>
<g><path style="opacity:0.732" fill="#000000" d="M 73.5,12.5 C 74.7868,13.8714 75.4535,15.7047 75.5,18C 75.1667,19.8333 74.8333,21.6667 74.5,23.5C 73.5108,19.8927 73.1774,16.226 73.5,12.5 Z"/></g>
<g><path style="opacity:0.732" fill="#000000" d="M 77.5,12.5 C 78.7868,13.8714 79.4535,15.7047 79.5,18C 79.1667,19.8333 78.8333,21.6667 78.5,23.5C 77.5108,19.8927 77.1774,16.226 77.5,12.5 Z"/></g>
<g><path style="opacity:0.732" fill="#000000" d="M 146.5,12.5 C 147.787,13.8714 148.453,15.7047 148.5,18C 148.167,19.8333 147.833,21.6667 147.5,23.5C 146.511,19.8927 146.177,16.226 146.5,12.5 Z"/></g>
<g><path style="opacity:0.629" fill="#000000" d="M 59.5,13.5 C 60.5,13.5 61.5,13.5 62.5,13.5C 63.0798,20.6178 64.2465,20.9511 66,14.5C 67.1562,13.0072 67.9896,13.1739 68.5,15C 67.6667,17.5 66.8333,20 66,22.5C 64.2859,23.9255 62.9525,23.5922 62,21.5C 61.0594,18.846 60.2261,16.1794 59.5,13.5 Z"/></g>
<g><path style="opacity:0.758" fill="#000000" d="M 109.5,13.5 C 111.792,13.2436 113.959,13.5769 116,14.5C 116.987,18.3482 115.487,20.3482 111.5,20.5C 111.719,21.675 111.386,22.675 110.5,23.5C 109.513,20.2317 109.18,16.8984 109.5,13.5 Z M 111.5,15.5 C 113.973,15.9473 114.14,16.9473 112,18.5C 111.517,17.552 111.351,16.552 111.5,15.5 Z"/></g>
<g><path style="opacity:0.599" fill="#000000" d="M 133.5,13.5 C 135.078,14.0656 136.412,15.0656 137.5,16.5C 135.721,18.1929 135.221,20.1929 136,22.5C 137.066,19.4369 139.233,17.9369 142.5,18C 141.062,17.7811 139.729,17.2811 138.5,16.5C 140.353,15.2404 142.186,15.2404 144,16.5C 144.497,18.8098 144.663,21.1432 144.5,23.5C 140.705,24.3046 137.038,24.3046 133.5,23.5C 132.534,21.604 132.201,19.604 132.5,17.5C 131.178,17.33 130.011,17.6634 129,18.5C 128.798,20.2556 128.298,21.9223 127.5,23.5C 126.52,20.9135 126.187,18.2469 126.5,15.5C 128.527,15.6621 130.527,15.4955 132.5,15C 133.056,14.6174 133.389,14.1174 133.5,13.5 Z M 140.5,20.5 C 143.001,20.5109 143.168,21.1776 141,22.5C 140.536,21.9056 140.369,21.2389 140.5,20.5 Z"/></g>
<g><path style="opacity:0.623" fill="#000000" d="M 81.5,15.5 C 83.4672,15.2606 85.3005,15.5939 87,16.5C 87.4966,18.8098 87.6633,21.1432 87.5,23.5C 85.2478,24.3331 83.0811,24.3331 81,23.5C 79.8629,19.63 81.3629,17.7967 85.5,18C 83.563,17.8784 82.2297,17.045 81.5,15.5 Z M 83.5,20.5 C 86.0009,20.5109 86.1676,21.1776 84,22.5C 83.5357,21.9056 83.369,21.2389 83.5,20.5 Z"/></g>
<g><path style="opacity:0.571" fill="#000000" d="M 96.5,17.5 C 95.8141,18.8484 94.8141,20.015 93.5,21C 97.6475,23.9256 97.1475,26.0923 92,27.5C 91.1268,27.2645 90.2935,26.9312 89.5,26.5C 89.4259,23.1901 89.2593,19.8568 89,16.5C 90.231,15.8922 91.5643,15.5589 93,15.5C 94.6811,15.6083 95.8478,16.2749 96.5,17.5 Z M 91.5,17.5 C 94.0009,17.5109 94.1676,18.1776 92,19.5C 91.5357,18.9056 91.369,18.2389 91.5,17.5 Z M 90.5,23.5 C 91.675,23.281 92.675,23.6143 93.5,24.5C 91.9483,25.7979 90.9483,25.4646 90.5,23.5 Z"/></g>
<g><path style="opacity:0.603" fill="#000000" d="M 96.5,17.5 C 100.816,14.243 103.482,15.243 104.5,20.5C 102.801,20.3398 101.134,20.5065 99.5,21C 100.678,21.9669 102.011,22.4669 103.5,22.5C 101.078,25.1013 98.9114,24.768 97,21.5C 96.51,20.2068 96.3433,18.8734 96.5,17.5 Z"/></g>
<g><path style="opacity:0.595" fill="#000000" d="M 118.5,15.5 C 125.225,15.2044 126.891,17.8711 123.5,23.5C 121.356,24.9535 119.523,24.6201 118,22.5C 117.297,20.0709 117.463,17.7375 118.5,15.5 Z M 120.5,17.5 C 122.972,18.7487 123.139,20.4153 121,22.5C 119.212,20.9769 119.045,19.3102 120.5,17.5 Z"/></g>
</svg>
