<?xml version="1.0" encoding="UTF-8"?>
<!DOCTYPE svg PUBLIC "-//W3C//DTD SVG 1.1//EN" "http://www.w3.org/Graphics/SVG/1.1/DTD/svg11.dtd">
<svg xmlns="http://www.w3.org/2000/svg" version="1.1" width="208px" height="170px" style="shape-rendering:geometricPrecision; text-rendering:geometricPrecision; image-rendering:optimizeQuality; fill-rule:evenodd; clip-rule:evenodd" xmlns:xlink="http://www.w3.org/1999/xlink">
<g><path style="opacity:0.927" fill="#01233c" d="M 127.5,91.5 C 129.39,91.2965 130.89,91.9632 132,93.5C 133.293,95.2859 133.793,96.9526 133.5,98.5C 135.642,96.7927 137.975,95.9593 140.5,96C 141.5,96.8333 142.5,97.6667 143.5,98.5C 142.276,100.839 142.276,103.172 143.5,105.5C 155.279,109.216 165.613,115.216 174.5,123.5C 124.837,124.667 75.17,124.833 25.5,124C 33.494,117.502 42.494,112.836 52.5,110C 52.7845,108.044 52.7845,105.877 52.5,103.5C 55.2776,103.978 57.2776,102.978 58.5,100.5C 59.086,100.709 59.586,101.043 60,101.5C 63.855,96.689 67.6883,96.189 71.5,100C 73.9203,100.687 76.087,100.187 78,98.5C 79.4676,100.816 81.3009,101.149 83.5,99.5C 85.7472,100.245 87.5805,101.578 89,103.5C 89.9503,102.978 90.7836,102.311 91.5,101.5C 94.3879,104.462 95.7213,103.795 95.5,99.5C 101.622,99.1856 106.788,96.8523 111,92.5C 112.299,92.9662 113.799,92.9662 115.5,92.5C 115.5,93.5 115.5,94.5 115.5,95.5C 117.359,95.5391 118.692,94.7058 119.5,93C 122.365,92.8171 125.031,92.3171 127.5,91.5 Z M 116.5,97.5 C 117.693,97.9704 118.36,98.9704 118.5,100.5C 118.333,101.5 118.167,102.5 118,103.5C 116.872,101.655 116.372,99.6547 116.5,97.5 Z M 124.5,99.5 C 126.465,99.9483 126.798,100.948 125.5,102.5C 124.614,101.675 124.281,100.675 124.5,99.5 Z M 109.5,100.5 C 110.586,100.62 111.253,101.287 111.5,102.5C 111.167,103.167 110.833,103.833 110.5,104.5C 109.571,103.311 109.238,101.978 109.5,100.5 Z M 101.5,104.5 C 102.289,104.783 102.956,105.283 103.5,106C 102.184,106.528 101.517,106.028 101.5,104.5 Z M 96.5,106.5 C 97.7733,107.077 97.7733,107.743 96.5,108.5C 95.537,108.03 95.537,107.363 96.5,106.5 Z"/></g>
<g><path style="opacity:0.67" fill="#000000" d="M 28.5,126.5 C 29.8333,126.5 31.1667,126.5 32.5,126.5C 32.8841,128.665 32.2174,130.332 30.5,131.5C 28.7826,130.332 28.1159,128.665 28.5,126.5 Z"/></g>
<g><path style="opacity:0.804" fill="#000000" d="M 36.5,126.5 C 37.8333,126.5 39.1667,126.5 40.5,126.5C 40.5,134.167 40.5,141.833 40.5,149.5C 39.1667,149.5 37.8333,149.5 36.5,149.5C 36.5,141.833 36.5,134.167 36.5,126.5 Z"/></g>
<g><path style="opacity:0.803" fill="#000000" d="M 45.5,126.5 C 46.8333,126.5 48.1667,126.5 49.5,126.5C 49.5,134.167 49.5,141.833 49.5,149.5C 48.1667,149.5 46.8333,149.5 45.5,149.5C 45.5,141.833 45.5,134.167 45.5,126.5 Z"/></g>
<g><path style="opacity:0.803" fill="#000000" d="M 193.5,126.5 C 194.833,126.5 196.167,126.5 197.5,126.5C 197.5,134.167 197.5,141.833 197.5,149.5C 196.167,149.5 194.833,149.5 193.5,149.5C 193.5,141.833 193.5,134.167 193.5,126.5 Z"/></g>
<g><path style="opacity:0.781" fill="#000000" d="M 7.5,127.5 C 8.97782,127.238 10.3112,127.571 11.5,128.5C 13.235,133.538 15.0683,138.538 17,143.5C 18.6667,138.5 20.3333,133.5 22,128.5C 23.3561,127.62 24.8561,127.286 26.5,127.5C 24.4442,134.168 22.2775,140.835 20,147.5C 18.33,149.698 16.33,150.032 14,148.5C 11.5237,141.573 9.35701,134.573 7.5,127.5 Z"/></g>
<g><path style="opacity:0.768" fill="#000000" d="M 113.5,127.5 C 117.182,127.335 120.848,127.501 124.5,128C 125.931,128.465 127.097,129.299 128,130.5C 129.995,138.67 126.829,142.336 118.5,141.5C 118.5,144.167 118.5,146.833 118.5,149.5C 116.833,149.5 115.167,149.5 113.5,149.5C 113.5,142.167 113.5,134.833 113.5,127.5 Z M 118.5,131.5 C 123.667,130.492 125.334,132.325 123.5,137C 121.975,138.009 120.308,138.509 118.5,138.5C 118.5,136.167 118.5,133.833 118.5,131.5 Z"/></g>
<g><path style="opacity:0.728" fill="#000000" d="M 165.5,129.5 C 166.5,129.5 167.5,129.5 168.5,129.5C 168.5,130.5 168.5,131.5 168.5,132.5C 169.833,132.5 171.167,132.5 172.5,132.5C 172.5,133.833 172.5,135.167 172.5,136.5C 171.167,136.5 169.833,136.5 168.5,136.5C 168.5,139.833 168.5,143.167 168.5,146.5C 170.167,146.5 171.833,146.5 173.5,146.5C 171.825,150.961 168.992,151.627 165,148.5C 164.501,144.514 164.334,140.514 164.5,136.5C 161.315,136.02 158.481,136.686 156,138.5C 155.501,142.152 155.335,145.818 155.5,149.5C 153.833,149.5 152.167,149.5 150.5,149.5C 150.5,143.833 150.5,138.167 150.5,132.5C 152.451,132.227 153.951,132.893 155,134.5C 157.299,132.464 159.799,132.131 162.5,133.5C 163.984,132.533 164.984,131.2 165.5,129.5 Z"/></g>
<g><path style="opacity:0.776" fill="#000000" d="M 28.5,132.5 C 29.8333,132.5 31.1667,132.5 32.5,132.5C 32.5,138.167 32.5,143.833 32.5,149.5C 31.1667,149.5 29.8333,149.5 28.5,149.5C 28.5,143.833 28.5,138.167 28.5,132.5 Z"/></g>
<g><path style="opacity:0.752" fill="#000000" d="M 57.5,132.5 C 60.6021,132.154 63.4355,132.821 66,134.5C 67.3885,139.372 67.8885,144.372 67.5,149.5C 65.8561,149.714 64.3561,149.38 63,148.5C 59.3932,151.269 56.0599,150.936 53,147.5C 51.9595,144.364 52.7928,141.864 55.5,140C 58.2263,139.818 60.8929,139.318 63.5,138.5C 61.5527,135.011 59.0527,134.678 56,137.5C 54.8118,136.437 54.3118,135.103 54.5,133.5C 55.791,133.737 56.791,133.404 57.5,132.5 Z M 58.5,142.5 C 63.1447,141.669 64.1447,142.836 61.5,146C 60.2068,146.49 58.8734,146.657 57.5,146.5C 57.4326,145.041 57.7659,143.708 58.5,142.5 Z"/></g>
<g><path style="opacity:0.774" fill="#000000" d="M 74.5,132.5 C 78.1667,132.5 81.8333,132.5 85.5,132.5C 84.2801,135.691 83.4468,139.025 83,142.5C 80.6451,143.808 78.1451,144.808 75.5,145.5C 78.1071,146.318 80.7737,146.818 83.5,147C 86.9489,153.576 84.7823,157.076 77,157.5C 74.7395,157.135 72.5728,156.469 70.5,155.5C 70.1667,154.5 69.8333,153.5 69.5,152.5C 70.6854,149.423 71.6854,146.256 72.5,143C 69.4597,138.736 70.1263,135.236 74.5,132.5 Z M 75.5,135.5 C 79.35,135.701 80.35,137.534 78.5,141C 74.5369,141.118 73.5369,139.284 75.5,135.5 Z M 75.5,149.5 C 77.8273,149.247 79.8273,149.914 81.5,151.5C 81.2907,152.086 80.9574,152.586 80.5,153C 78.1902,153.497 75.8568,153.663 73.5,153.5C 73.5271,151.801 74.1938,150.467 75.5,149.5 Z"/></g>
<g><path style="opacity:0.774" fill="#000000" d="M 92.5,132.5 C 99.4507,132.117 102.784,135.451 102.5,142.5C 98.8183,142.335 95.1516,142.501 91.5,143C 93.5938,146.582 96.5938,147.415 100.5,145.5C 101.429,146.689 101.762,148.022 101.5,149.5C 90.8444,152.342 86.3444,148.342 88,137.5C 89.025,135.313 90.525,133.646 92.5,132.5 Z M 94.5,135.5 C 96.2825,136.114 97.6159,137.28 98.5,139C 96.1667,139.667 93.8333,139.667 91.5,139C 92.365,137.641 93.365,136.474 94.5,135.5 Z"/></g>
<g><path style="opacity:0.755" fill="#000000" d="M 136.5,132.5 C 145.153,131.987 148.653,135.987 147,144.5C 144.475,150.123 140.308,151.623 134.5,149C 131.682,145.662 130.849,141.829 132,137.5C 133.025,135.313 134.525,133.646 136.5,132.5 Z M 137.5,136.5 C 141.29,135.953 143.29,137.62 143.5,141.5C 143.288,145.558 141.288,147.058 137.5,146C 134.875,142.763 134.875,139.596 137.5,136.5 Z"/></g>
<g><path style="opacity:0.752" fill="#000000" d="M 179.5,132.5 C 182.602,132.154 185.435,132.821 188,134.5C 189.388,139.372 189.888,144.372 189.5,149.5C 187.856,149.714 186.356,149.38 185,148.5C 181.393,151.269 178.06,150.936 175,147.5C 173.959,144.364 174.793,141.864 177.5,140C 180.226,139.818 182.893,139.318 185.5,138.5C 183.553,135.011 181.053,134.678 178,137.5C 176.812,136.437 176.312,135.103 176.5,133.5C 177.791,133.737 178.791,133.404 179.5,132.5 Z M 180.5,142.5 C 185.145,141.669 186.145,142.836 183.5,146C 182.207,146.49 180.873,146.657 179.5,146.5C 179.433,145.041 179.766,143.708 180.5,142.5 Z"/></g>
</svg>
