<?xml version="1.0" encoding="UTF-8"?>
<svg width="26px" height="23px" viewBox="0 0 26 23" version="1.1" xmlns="http://www.w3.org/2000/svg" xmlns:xlink="http://www.w3.org/1999/xlink">
    <!-- Generator: Sketch 62 (91390) - https://sketch.com -->
    <title>Combined Shape</title>
    <desc>Created with Sketch.</desc>
    <g id="export" stroke="none" stroke-width="1" fill="none" fill-rule="evenodd">
        <g id="uvod" transform="translate(-40.000000, -570.000000)" fill="#2C2D2D" fill-rule="nonzero">
            <g id="Group-19" transform="translate(-0.064478, 558.993268)">
                <path d="M55.3356578,11.0189339 C56.592698,11.0189339 57.6153483,12.0410908 57.6153483,13.2975245 L57.6153483,13.2975245 L57.6153483,31.6975584 C57.6153483,32.9539921 56.5926476,33.976149 55.3356073,33.976149 C44.6131882,33.976149 45.2781757,34.01275 45.0351607,33.8908474 C44.8652318,33.8068566 45.1733131,34.0888761 40.314274,29.2322319 C39.997207,28.9153179 40.0689819,29.8228788 40.0769521,15.6611861 L40.0776143,13.2975245 C40.0776143,12.0410908 41.100315,11.0189339 42.3573553,11.0189339 L42.3573553,11.0189339 Z M59.2012445,11.0657804 L59.2907457,11.0663117 C60.8667623,11.2029014 61.8058569,11.8293454 61.884538,12.9524344 L61.8899131,13.1086619 L61.8899131,32.0254761 C61.8899131,33.2986322 60.9077059,33.9359776 59.2432565,33.9359776 C58.9394999,33.9359776 58.6932565,33.6897342 58.6932565,33.3859776 C58.6932565,33.082221 58.9394999,32.8359776 59.2432565,32.8359776 C60.3078144,32.8359776 60.7385474,32.5971131 60.7855383,32.1181047 L60.7899131,32.0254761 L60.7899131,13.1086619 C60.7899131,12.579761 60.3436558,12.2616885 59.1957673,12.1622036 C58.8931451,12.1359761 58.669083,11.8693907 58.6953105,11.5667685 C58.7189153,11.2944085 58.93721,11.0856822 59.2012445,11.0657804 Z M62.9258093,11.0657804 L63.0153105,11.0663117 C64.5913271,11.2029014 65.5304217,11.8293454 65.6091028,12.9524344 L65.6144779,13.1086619 L65.6144779,32.0254761 C65.6144779,33.2986322 64.6322707,33.9359776 62.9678213,33.9359776 C62.6640647,33.9359776 62.4178213,33.6897342 62.4178213,33.3859776 C62.4178213,33.082221 62.6640647,32.8359776 62.9678213,32.8359776 C64.0323792,32.8359776 64.4631122,32.5971131 64.5101031,32.1181047 L64.5144779,32.0254761 L64.5144779,13.1086619 C64.5144779,12.579761 64.0682206,12.2616885 62.9203321,12.1622036 C62.6177099,12.1359761 62.3936478,11.8693907 62.4198753,11.5667685 C62.4434801,11.2944085 62.6617748,11.0856822 62.9258093,11.0657804 Z M55.150656,12.1030367 L42.8626329,12.1030367 C41.6602417,12.1030367 41.1690714,12.5204901 41.1690714,13.5550546 L41.1690714,13.5550546 L41.1690714,28.2431734 L45.1393187,28.2431734 C45.6171392,28.2431734 46.0045437,28.6260573 46.0045437,29.0984216 L46.0045437,29.0984216 L46.0045437,33.0228347 L46.0045437,33.0228347 L54.8669117,33.0228347 C55.9278142,33.0228347 56.5107548,32.6904544 56.5107548,31.5926034 L56.5107548,31.5926034 L56.5107548,13.4296165 C56.5107548,12.4371397 55.9686452,12.1030367 55.150656,12.1030367 L55.150656,12.1030367 Z M45.0730325,29.0532457 L41.4809151,29.0532457 L45.0730325,32.6671682 L45.0730325,29.0532457 Z" id="Combined-Shape"></path>
            </g>
        </g>
    </g>
</svg>