<?xml version="1.0" encoding="UTF-8"?>
<svg width="27px" height="26px" viewBox="0 0 27 26" version="1.1" xmlns="http://www.w3.org/2000/svg" xmlns:xlink="http://www.w3.org/1999/xlink">
    <!-- Generator: Sketch 62 (91390) - https://sketch.com -->
    <title>uzivatele</title>
    <desc>Created with Sketch.</desc>
    <g id="export" stroke="none" stroke-width="1" fill="none" fill-rule="evenodd">
        <g id="uvod" transform="translate(-39.000000, -165.000000)" fill="#2C2D2D" fill-rule="nonzero">
            <g id="Group-8" transform="translate(-0.064478, 154.875618)">
                <g id="uzivatele" transform="translate(39.564478, 10.236251)">
                    <path d="M13,7.512948 C15.5555081,7.512948 17.2939726,8.38027899 17.3969875,10.4916701 L17.4018288,10.6932692 L17.4018288,15.4692665 C17.4018288,16.1533988 17.0568265,16.7961066 16.4922979,17.1880378 L16.3466649,17.280675 L16.2666972,17.3271483 C15.488509,17.7794493 15.1823818,18.5348303 15.1490595,19.844824 L15.1459599,20.0970086 L15.1459599,24.7762631 C15.1459599,25.0524055 14.9221023,25.2762631 14.6459599,25.2762631 C14.4005,25.2762631 14.1963515,25.0993879 14.1540156,24.8661387 L14.1459599,24.7762631 L14.1459599,20.0970086 C14.1459599,18.3964503 14.5174022,17.2757308 15.5969294,16.5659665 L15.7642113,16.4625629 L15.8442839,16.4160286 C16.1504661,16.2381679 16.3528537,15.9304348 16.3940487,15.5958101 L16.4018288,15.4692665 L16.4018288,10.6932692 C16.4018288,9.1636353 15.155698,8.512948 13,8.512948 C10.9212912,8.512948 9.68834074,9.11798759 9.60292426,10.5327328 L9.59817124,10.6932692 L9.59817124,15.4537709 C9.59817124,15.7972373 9.76892431,16.1245544 10.0526856,16.3331544 L10.1642805,16.4056142 L10.2582449,16.4591756 C11.4248816,17.1238981 11.8253595,18.1670672 11.8593562,19.8653987 L11.8617629,20.1125042 L11.8617629,24.7762631 C11.8617629,25.0524055 11.6379053,25.2762631 11.3617629,25.2762631 C11.1163031,25.2762631 10.9121546,25.0993879 10.8698186,24.8661387 L10.8617629,24.7762631 L10.8617629,20.1125042 C10.8617629,18.6747066 10.6198527,17.8895625 9.89591549,17.4095943 L9.76310927,17.3279912 L9.6690877,17.2743973 C9.06004964,16.9272754 8.66289267,16.3073604 8.60539537,15.6254249 L8.59817124,15.4537709 L8.59817124,10.6932692 C8.59817124,8.43533418 10.3646323,7.512948 13,7.512948 Z M20.8126243,9.19282627 C22.2090117,9.19282627 23.3611804,9.4677605 24.2332295,10.0233435 C25.3854711,10.7572117 26,11.9397631 26,13.3996795 L26,13.3996795 L26,17.4652605 L25.993309,17.6905531 C25.9266254,18.8128367 25.364902,19.8656467 24.4607498,20.5437609 C24.2271776,20.71894 24.0867854,20.9997244 24.0867854,21.2916896 L24.0867854,21.2916896 L24.0867854,24.6398151 L24.0787298,24.7296907 C24.0363938,24.9629399 23.8322453,25.1398151 23.5867854,25.1398151 C23.3106431,25.1398151 23.0867854,24.9159575 23.0867854,24.6398151 L23.0867854,24.6398151 L23.0867854,21.2916896 L23.0938715,21.1270904 C23.1408821,20.5817881 23.4194971,20.0747004 23.8607498,19.7437609 L23.8607498,19.7437609 L24.009026,19.6244553 C24.632143,19.0872086 25,18.2924123 25,17.4652605 L25,17.4652605 L25,13.3996795 L24.9940452,13.1779707 C24.9385197,12.1599719 24.4954299,11.3759403 23.6959704,10.8667608 C23.0009686,10.4239747 22.0322933,10.1928263 20.8126243,10.1928263 C20.5364819,10.1928263 20.3126243,9.96896864 20.3126243,9.69282627 C20.3126243,9.41668389 20.5364819,9.19282627 20.8126243,9.19282627 Z M5.1873757,9.19282627 C5.46351807,9.19282627 5.6873757,9.41668389 5.6873757,9.69282627 C5.6873757,9.96896864 5.46351807,10.1928263 5.1873757,10.1928263 C3.96770673,10.1928263 2.99903141,10.4239747 2.30402956,10.8667608 C1.50457014,11.3759403 1.06148033,12.1599719 1.00595484,13.1779707 L1,13.3996795 L1,17.4652605 C1,18.3560394 1.42662705,19.2092935 2.13925021,19.7437609 C2.58050293,20.0747004 2.85911795,20.5817881 2.9061285,21.1270904 L2.91321457,21.2916896 L2.91321457,24.6398151 C2.91321457,24.9159575 2.68935695,25.1398151 2.41321457,25.1398151 C2.16775468,25.1398151 1.9636062,24.9629399 1.92127024,24.7296907 L1.91321457,24.6398151 L1.91321457,21.2916896 C1.91321457,20.9997244 1.77282236,20.71894 1.53925019,20.5437609 C0.635098015,19.8656467 0.0733745558,18.8128367 0.00669096785,17.6905531 L1.66977543e-13,17.4652605 L1.66977543e-13,13.3996795 C1.66977543e-13,11.9397631 0.614528851,10.7572117 1.7667705,10.0233435 C2.63881964,9.4677605 3.79098833,9.19282627 5.1873757,9.19282627 Z M7.44101732,19.7881041 C7.68647721,19.7881041 7.89062569,19.9649793 7.93296165,20.1982285 L7.94101732,20.2881041 L7.94101732,24.6398151 C7.94101732,24.9159575 7.7171597,25.1398151 7.44101732,25.1398151 C7.19555744,25.1398151 6.99140895,24.9629399 6.94907299,24.7296907 L6.94101732,24.6398151 L6.94101732,20.2881041 C6.94101732,20.0119617 7.16487495,19.7881041 7.44101732,19.7881041 Z M18.5089018,19.7881041 C18.7543616,19.7881041 18.9585101,19.9649793 19.0008461,20.1982285 L19.0089018,20.2881041 L19.0089018,24.6398151 C19.0089018,24.9159575 18.7850441,25.1398151 18.5089018,25.1398151 C18.2634419,25.1398151 18.0592934,24.9629399 18.0169574,24.7296907 L18.0089018,24.6398151 L18.0089018,20.2881041 C18.0089018,20.0119617 18.2327594,19.7881041 18.5089018,19.7881041 Z M5.1873757,2.003237 C6.84435008,2.003237 8.1922312,3.35111812 8.1922312,5.0080925 C8.1922312,6.66506688 6.84435008,8.012948 5.1873757,8.012948 C3.53040132,8.012948 2.1825202,6.66506688 2.1825202,5.0080925 C2.1825202,3.35111812 3.53040132,2.003237 5.1873757,2.003237 Z M20.8126243,2.003237 C22.4695987,2.003237 23.8174798,3.35111812 23.8174798,5.0080925 C23.8174798,6.66506688 22.4695987,8.012948 20.8126243,8.012948 C19.1556499,8.012948 17.8077688,6.66506688 17.8077688,5.0080925 C17.8077688,3.35111812 19.1556499,2.003237 20.8126243,2.003237 Z M5.1873757,3.003237 C4.08268607,3.003237 3.1825202,3.90340287 3.1825202,5.0080925 C3.1825202,6.11278213 4.08268607,7.012948 5.1873757,7.012948 C6.29206533,7.012948 7.1922312,6.11278213 7.1922312,5.0080925 C7.1922312,3.90340287 6.29206533,3.003237 5.1873757,3.003237 Z M20.8126243,3.003237 C19.7079347,3.003237 18.8077688,3.90340287 18.8077688,5.0080925 C18.8077688,6.11278213 19.7079347,7.012948 20.8126243,7.012948 C21.9173139,7.012948 22.8174798,6.11278213 22.8174798,5.0080925 C22.8174798,3.90340287 21.9173139,3.003237 20.8126243,3.003237 Z M13,5.32907052e-14 C14.6569744,5.32907052e-14 16.0048555,1.34788112 16.0048555,3.0048555 C16.0048555,4.66182988 14.6569744,6.009711 13,6.009711 C11.3430256,6.009711 9.9951445,4.66182988 9.9951445,3.0048555 C9.9951445,1.34788112 11.3430256,5.32907052e-14 13,5.32907052e-14 Z M13,1 C11.8953104,1 10.9951445,1.90016587 10.9951445,3.0048555 C10.9951445,4.10954513 11.8953104,5.009711 13,5.009711 C14.1046896,5.009711 15.0048555,4.10954513 15.0048555,3.0048555 C15.0048555,1.90016587 14.1046896,1 13,1 Z" id="Combined-Shape"></path>
                </g>
            </g>
        </g>
    </g>
</svg>